<svg width="24" height="24" viewBox="0 0 24 24" fill="none" xmlns="http://www.w3.org/2000/svg">
<g clip-path="url(#clip0)">
<path d="M24 12.0469C24 17.6719 20.0577 22.3828 14.8125 23.6484L13.3781 19.0922H10.6219L9.23438 23.6484C3.98914 22.3828 0 17.6719 0 12.0469C0 5.4516 5.40472 0 12 0C18.5953 0 24 5.4516 24 12.0469Z" fill="#FD8A5B"/>
<path d="M24 12.0469C24 17.6719 20.0577 22.3828 14.8125 23.6484L13.3781 19.0922H12V0C18.5953 0 24 5.4516 24 12.0469Z" fill="#FD615B"/>
<path d="M8.49738 20.1589C8.21246 20.1589 7.93433 20.1183 7.66168 20.0381C6.95251 19.8286 6.37628 19.3562 5.94855 18.6358C5.75354 18.307 5.55029 18.079 5.31079 17.9182C5.07513 17.7597 4.88708 17.6993 4.6886 17.7137L4.565 16.313C5.08612 16.2683 5.58472 16.4096 6.09283 16.7497C6.50684 17.0263 6.85492 17.4088 7.15778 17.9175C7.40643 18.3357 7.69263 18.5809 8.06012 18.6895C8.47284 18.8109 8.90112 18.7602 9.44916 18.5267L10.0027 19.8189C9.47314 20.0456 8.97473 20.1589 8.49738 20.1589Z" fill="#ECECF1"/>
<path d="M18.7923 13.4673C18.2999 14.775 17.0625 16.4345 13.9266 16.8985C14.3344 17.5031 14.8266 17.8267 14.8125 19.0923V23.6485C13.9125 23.8735 12.9703 24.0001 12 24.0001C11.0297 24.0001 10.1343 23.8735 9.23435 23.6485V19.0359C9.23435 17.7844 9.70787 17.4328 10.0733 16.8985C6.93748 16.4343 5.70005 14.775 5.20768 13.4673C4.54685 11.7234 4.89842 9.5578 6.05161 8.17975C6.07963 8.15155 6.12193 8.08124 6.10783 8.03912C5.57334 6.43604 6.22025 5.1001 6.24845 4.95947C6.85307 5.14221 6.95158 4.77655 8.90623 5.97186L9.24369 6.16888C9.38432 6.25311 9.3422 6.1969 9.48283 6.1969C10.2984 5.97186 11.1562 5.84534 12 5.84534C12.8578 5.84534 13.7016 5.97186 14.5592 6.1969L14.6578 6.211C14.6578 6.211 14.6858 6.211 14.7563 6.16888C17.189 4.69214 17.1046 5.17041 17.7654 4.95947C17.7795 5.1001 18.4264 6.44995 17.8921 8.03912C17.8218 8.25006 20.0015 10.2468 18.7923 13.4673Z" fill="#ECECF1"/>
<path d="M18.7923 13.4673C18.2999 14.775 17.0625 16.4345 13.9266 16.8985C14.3344 17.5031 14.8266 17.8267 14.8125 19.0923V23.6485C13.9125 23.8735 12.9703 24.0001 12 24.0001V5.84534C12.8579 5.84534 13.7016 5.97186 14.5595 6.1969L14.6578 6.211C14.6578 6.211 14.686 6.211 14.7563 6.16888C17.189 4.69214 17.1046 5.17041 17.7656 4.95947C17.7797 5.1001 18.4266 6.44995 17.8922 8.03912C17.8218 8.25006 20.0015 10.2468 18.7923 13.4673Z" fill="#E2E2E7"/>
</g>
<defs>
<clipPath id="clip0">
<rect width="24" height="24" fill="white"/>
</clipPath>
</defs>
</svg>
