<svg width="24" height="24" viewBox="0 0 24 24" fill="none" xmlns="http://www.w3.org/2000/svg">
<path d="M20.4844 0H3.51562C1.575 0 0 1.575 0 3.51562V20.4844C0 22.425 1.575 24 3.51562 24H20.4844C22.425 24 24 22.425 24 20.4844V3.51562C24 1.575 22.425 0 20.4844 0Z" fill="#FD8A5B"/>
<path d="M24 3.51562V20.4844C24 22.425 22.425 24 20.4844 24H12V0H20.4844C22.425 0 24 1.575 24 3.51562Z" fill="#FD615B"/>
<path d="M19.7344 5.625C18.9592 5.625 18.3281 4.99397 18.3281 4.21875C18.3281 3.44353 18.9592 2.8125 19.7344 2.8125C20.5096 2.8125 21.1406 3.44353 21.1406 4.21875C21.1406 4.99397 20.5096 5.625 19.7344 5.625Z" fill="#EFE2DD"/>
<path d="M12 5.625C8.51255 5.625 5.67188 8.46558 5.67188 11.9531C5.67188 15.4406 8.51255 18.2812 12 18.2812C15.4875 18.2812 18.3281 15.4406 18.3281 11.9531C18.3281 8.46558 15.4875 5.625 12 5.625ZM12 16.875C9.28594 16.875 7.07812 14.6672 7.07812 11.9531C7.07812 9.23906 9.28594 7.03125 12 7.03125C14.7141 7.03125 16.9219 9.23906 16.9219 11.9531C16.9219 14.6672 14.7141 16.875 12 16.875Z" fill="#FFF5F5"/>
<path d="M18.3281 11.9531C18.3281 15.4406 15.4875 18.2812 12 18.2812V16.875C14.7141 16.875 16.9219 14.6672 16.9219 11.9531C16.9219 9.23906 14.7141 7.03125 12 7.03125V5.625C15.4875 5.625 18.3281 8.46558 18.3281 11.9531Z" fill="#EFE2DD"/>
</svg>
