<svg width="24" height="24" viewBox="0 0 24 24" fill="none" xmlns="http://www.w3.org/2000/svg">
<path d="M21.8906 9.31402C20.1187 7.73902 17.8406 7.79531 16.9406 7.87969C15.6891 8.02027 14.8031 8.49844 14.1562 9.01875V8.48438C14.1562 8.09058 13.8469 7.78125 13.4531 7.78125H8.4375C8.0437 7.78125 7.73438 8.09058 7.73438 8.48438V22.5469C7.73438 22.9406 8.0437 23.25 8.4375 23.25H13.4531C13.8469 23.25 14.1562 22.9406 14.1562 22.5469V14.5031C14.1562 13.8 15.0843 13.0968 16.0687 13.0547C16.7578 13.0406 17.5875 13.3219 17.6719 14.7422V22.5469C17.6719 22.9406 17.9812 23.25 18.375 23.25H23.2969C23.4797 23.25 23.6625 23.1797 23.789 23.039C23.9297 22.9125 24 22.7297 24 22.5469V15.0234C23.9859 12.4781 23.2828 10.5656 21.8906 9.31402Z" fill="#FD8A5B"/>
<path d="M5.625 7.78125H0.703125C0.309328 7.78125 0 8.09058 0 8.48438V22.5469C0 22.9406 0.309328 23.25 0.703125 23.25H5.625C6.0188 23.25 6.32812 22.9406 6.32812 22.5469V8.48438C6.32812 8.09058 6.0188 7.78125 5.625 7.78125Z" fill="#FD8A5B"/>
<path d="M3.16406 0.75C1.42031 0.75 0 2.01558 0 3.5625C0 5.10933 1.42031 6.375 3.16406 6.375C4.90781 6.375 6.32812 5.10933 6.32812 3.5625C6.32812 2.01558 4.90781 0.75 3.16406 0.75Z" fill="#FD8A5B"/>
<path d="M24 15.0234V22.5469C24 22.7297 23.9297 22.9125 23.789 23.039C23.6625 23.1797 23.4797 23.25 23.2969 23.25H18.375C17.9812 23.25 17.6719 22.9406 17.6719 22.5469V14.7422C17.5875 13.3219 16.7578 13.0406 16.0687 13.0547C15.0844 13.0968 14.1562 13.8 14.1562 14.5031V22.5469C14.1562 22.9406 13.8469 23.25 13.4531 23.25H12.0469V7.78125H13.4531C13.8469 7.78125 14.1562 8.09058 14.1562 8.48438V9.01875C14.8032 8.49844 15.6891 8.02027 16.9406 7.87969C17.8406 7.79531 20.1187 7.73902 21.8906 9.31402C23.2828 10.5656 23.9859 12.4781 24 15.0234Z" fill="#FD615B"/>
</svg>
