<svg width="24" height="24" viewBox="0 0 24 24" fill="none" xmlns="http://www.w3.org/2000/svg">
<g clip-path="url(#clip0)">
<path d="M12.9703 18.401L8.27337 23.0838C8.1328 23.1682 7.94998 23.3792 7.57025 23.2666C7.37342 23.1963 7.13431 22.9713 7.09217 22.7182V22.7041L5.74213 14.6323L6.83905 13.8026C6.98108 13.8859 9.69158 15.4753 9.52493 15.3776L12.9702 17.4026C13.2375 17.6838 13.2375 18.1198 12.9703 18.401Z" fill="#D7754C"/>
<path d="M23.9863 1.54517L19.7203 22.7323C19.6781 22.9573 19.5094 23.1542 19.2844 23.2385C19.2 23.2807 19.1156 23.2948 19.0312 23.2948C18.8906 23.2948 18.75 23.2526 18.6234 23.1682C18.482 23.0672 8.12058 15.6662 8.77969 16.137C2.50594 13.0292 5.77842 14.6626 0.39375 11.9745C0.140625 11.8479 0 11.5948 0 11.3276C0.0140625 11.0464 0.16875 10.8073 0.421875 10.6948L23.016 0.75767C23.2551 0.659233 23.5363 0.687358 23.7332 0.856108C23.7613 0.884233 23.8035 0.92642 23.8316 0.954545C23.9722 1.1233 24.0285 1.33423 23.9863 1.54517Z" fill="#FD8A5B"/>
<path d="M23.8316 0.954468L9.525 15.3775L8.77973 16.1369L7.57031 23.2665C7.37348 23.1962 7.13437 22.9712 7.09223 22.7181V22.704L5.74219 14.6322L6.83911 13.8025L23.8316 0.954468Z" fill="#FD615B"/>
</g>
<defs>
<clipPath id="clip0">
<rect width="24" height="24" fill="white"/>
</clipPath>
</defs>
</svg>
