<svg width="770" height="535" viewBox="0 0 770 535" fill="none" xmlns="http://www.w3.org/2000/svg">
<mask id="mask0" mask-type="alpha" maskUnits="userSpaceOnUse" x="103" y="165" width="613" height="221">
<path d="M145.513 166.973C152.95 166.973 159.428 168.199 164.948 170.653C170.468 173.106 174.723 176.633 177.713 181.233C180.703 185.833 182.198 191.199 182.198 197.333C182.198 203.466 180.703 208.833 177.713 213.433C174.723 218.033 170.468 221.559 164.948 224.013C159.428 226.466 152.95 227.693 145.513 227.693H133.898V247.473H106.758V166.973H145.513ZM143.788 206.763C147.468 206.763 150.228 205.958 152.068 204.348C153.908 202.661 154.828 200.323 154.828 197.333C154.828 194.343 153.908 192.043 152.068 190.433C150.228 188.746 147.468 187.903 143.788 187.903H133.898V206.763H143.788ZM253.411 233.443H222.821L217.416 247.473H189.816L225.006 166.973H251.686L286.876 247.473H258.816L253.411 233.443ZM245.936 213.893L238.116 193.653L230.296 213.893H245.936ZM316.144 188.018H292.569V166.973H366.859V188.018H343.284V247.473H316.144V188.018ZM419.908 227.233H412.548V247.473H385.408V166.973H424.163C431.6 166.973 438.078 168.199 443.598 170.653C449.118 173.106 453.373 176.633 456.363 181.233C459.353 185.833 460.848 191.199 460.848 197.333C460.848 203.083 459.545 208.104 456.938 212.398C454.332 216.691 450.575 220.103 445.668 222.633L462.573 247.473H433.593L419.908 227.233ZM433.478 197.333C433.478 194.343 432.558 192.043 430.718 190.433C428.878 188.746 426.118 187.903 422.438 187.903H412.548V206.763H422.438C426.118 206.763 428.878 205.958 430.718 204.348C432.558 202.661 433.478 200.323 433.478 197.333ZM482.597 166.973H509.737V247.473H482.597V166.973ZM575.932 249.313C567.422 249.313 559.755 247.549 552.932 244.023C546.109 240.419 540.742 235.436 536.832 229.073C532.999 222.633 531.082 215.349 531.082 207.223C531.082 199.096 532.999 191.851 536.832 185.488C540.742 179.048 546.109 174.064 552.932 170.538C559.755 166.934 567.422 165.133 575.932 165.133C583.752 165.133 590.729 166.513 596.862 169.273C602.995 172.033 608.055 176.019 612.042 181.233L594.907 196.528C589.924 190.241 584.059 187.098 577.312 187.098C571.639 187.098 567.077 188.938 563.627 192.618C560.177 196.221 558.452 201.089 558.452 207.223C558.452 213.356 560.177 218.263 563.627 221.943C567.077 225.546 571.639 227.348 577.312 227.348C584.059 227.348 589.924 224.204 594.907 217.918L612.042 233.213C608.055 238.426 602.995 242.413 596.862 245.173C590.729 247.933 583.752 249.313 575.932 249.313ZM664.153 220.793L658.058 227.578V247.473H631.378V166.973H658.058V196.183L684.508 166.973H714.063L681.863 202.393L715.673 247.473H684.278L664.153 220.793ZM160.003 341.038H183.578V375.078C178.825 378.374 173.305 380.904 167.018 382.668C160.731 384.431 154.56 385.313 148.503 385.313C139.916 385.313 132.211 383.549 125.388 380.023C118.565 376.419 113.198 371.436 109.288 365.073C105.455 358.633 103.538 351.349 103.538 343.223C103.538 335.096 105.455 327.851 109.288 321.488C113.198 315.048 118.603 310.064 125.503 306.538C132.48 302.934 140.338 301.133 149.078 301.133C156.975 301.133 164.028 302.474 170.238 305.158C176.525 307.764 181.738 311.598 185.878 316.658L168.513 331.953C163.453 326.049 157.435 323.098 150.458 323.098C144.478 323.098 139.725 324.899 136.198 328.503C132.671 332.106 130.908 337.013 130.908 343.223C130.908 349.279 132.633 354.148 136.083 357.828C139.61 361.508 144.286 363.348 150.113 363.348C153.563 363.348 156.86 362.696 160.003 361.393V341.038ZM261.497 369.443H230.907L225.502 383.473H197.902L233.092 302.973H259.772L294.962 383.473H266.902L261.497 369.443ZM254.022 349.893L246.202 329.653L238.382 349.893H254.022ZM310.793 302.973H337.933V362.428H374.273V383.473H310.793V302.973ZM393.27 302.973H420.41V383.473H393.27V302.973ZM486.605 385.313C478.095 385.313 470.428 383.549 463.605 380.023C456.781 376.419 451.415 371.436 447.505 365.073C443.671 358.633 441.755 351.349 441.755 343.223C441.755 335.096 443.671 327.851 447.505 321.488C451.415 315.048 456.781 310.064 463.605 306.538C470.428 302.934 478.095 301.133 486.605 301.133C494.425 301.133 501.401 302.513 507.535 305.273C513.668 308.033 518.728 312.019 522.715 317.233L505.58 332.528C500.596 326.241 494.731 323.098 487.985 323.098C482.311 323.098 477.75 324.938 474.3 328.618C470.85 332.221 469.125 337.089 469.125 343.223C469.125 349.356 470.85 354.263 474.3 357.943C477.75 361.546 482.311 363.348 487.985 363.348C494.731 363.348 500.596 360.204 505.58 353.918L522.715 369.213C518.728 374.426 513.668 378.413 507.535 381.173C501.401 383.933 494.425 385.313 486.605 385.313ZM542.051 302.973H569.191V383.473H542.051V302.973ZM648.611 369.443H618.021L612.616 383.473H585.016L620.206 302.973H646.886L682.076 383.473H654.016L648.611 369.443ZM641.136 349.893L633.316 329.653L625.496 349.893H641.136Z" fill="#333333"/>
</mask>
<g mask="url(#mask0)">
<rect x="179.481" y="5.27252" width="275.852" height="178.785" transform="rotate(28.3419 179.481 5.27252)" fill="#FD8A5B"/>
<rect x="337.393" y="293.582" width="148.652" height="231.603" transform="rotate(28.3419 337.393 293.582)" fill="#FD8A5B"/>
<rect x="604.206" y="106.791" width="201.956" height="291.779" transform="rotate(28.3419 604.206 106.791)" fill="#FD8A5B"/>
<g clip-path="url(#clip0)">
<rect width="268.568" height="184.905" transform="translate(101.35 165.725) rotate(28.3384)" fill="#FD615B"/>
</g>
<g clip-path="url(#clip1)">
<rect width="148.773" height="290.806" transform="translate(474.836 38.4509) rotate(28.3384)" fill="#FD615B"/>
</g>
<g clip-path="url(#clip2)">
<rect width="82.2654" height="38.8116" transform="translate(466.493 363.463) rotate(28.3384)" fill="#FD615B"/>
</g>
</g>
<defs>
<clipPath id="clip0">
<rect width="268.568" height="184.905" fill="white" transform="translate(101.35 165.725) rotate(28.3384)"/>
</clipPath>
<clipPath id="clip1">
<rect width="148.773" height="290.806" fill="white" transform="translate(474.836 38.4509) rotate(28.3384)"/>
</clipPath>
<clipPath id="clip2">
<rect width="82.2654" height="38.8116" fill="white" transform="translate(466.493 363.463) rotate(28.3384)"/>
</clipPath>
</defs>
</svg>
