<svg width="246" height="183" viewBox="0 0 246 183" fill="none" xmlns="http://www.w3.org/2000/svg">
<g clip-path="url(#clip0)">
<mask id="mask0" mask-type="alpha" maskUnits="userSpaceOnUse" x="21" y="52" width="192" height="69">
<path d="M34.3684 52.9024C36.6964 52.9024 38.7244 53.2864 40.4524 54.0544C42.1804 54.8224 43.5124 55.9264 44.4484 57.3664C45.3844 58.8064 45.8525 60.4864 45.8525 62.4064C45.8525 64.3264 45.3844 66.0064 44.4484 67.4464C43.5124 68.8864 42.1804 69.9904 40.4524 70.7584C38.7244 71.5264 36.6964 71.9104 34.3684 71.9104H30.7324V78.1024H22.2364V52.9024H34.3684ZM33.8284 65.3584C34.9804 65.3584 35.8444 65.1064 36.4204 64.6024C36.9964 64.0744 37.2844 63.3424 37.2844 62.4064C37.2844 61.4704 36.9964 60.7504 36.4204 60.2464C35.8444 59.7184 34.9804 59.4544 33.8284 59.4544H30.7324V65.3584H33.8284ZM68.1452 73.7104H58.5692L56.8772 78.1024H48.2372L59.2532 52.9024H67.6052L78.6212 78.1024H69.8372L68.1452 73.7104ZM65.8052 67.5904L63.3572 61.2544L60.9092 67.5904H65.8052ZM87.7834 59.4904H80.4034V52.9024H103.659V59.4904H96.2794V78.1024H87.7834V59.4904ZM120.266 71.7664H117.962V78.1024H109.466V52.9024H121.598C123.926 52.9024 125.954 53.2864 127.682 54.0544C129.41 54.8224 130.742 55.9264 131.678 57.3664C132.614 58.8064 133.082 60.4864 133.082 62.4064C133.082 64.2064 132.674 65.7784 131.858 67.1224C131.042 68.4664 129.866 69.5344 128.33 70.3264L133.622 78.1024H124.55L120.266 71.7664ZM124.514 62.4064C124.514 61.4704 124.226 60.7504 123.65 60.2464C123.074 59.7184 122.21 59.4544 121.058 59.4544H117.962V65.3584H121.058C122.21 65.3584 123.074 65.1064 123.65 64.6024C124.226 64.0744 124.514 63.3424 124.514 62.4064ZM139.89 52.9024H148.386V78.1024H139.89V52.9024ZM169.108 78.6784C166.444 78.6784 164.044 78.1264 161.908 77.0224C159.772 75.8944 158.092 74.3344 156.868 72.3424C155.668 70.3264 155.068 68.0464 155.068 65.5024C155.068 62.9584 155.668 60.6904 156.868 58.6984C158.092 56.6824 159.772 55.1224 161.908 54.0184C164.044 52.8904 166.444 52.3264 169.108 52.3264C171.556 52.3264 173.74 52.7584 175.66 53.6224C177.58 54.4864 179.164 55.7344 180.412 57.3664L175.048 62.1544C173.488 60.1864 171.652 59.2024 169.54 59.2024C167.764 59.2024 166.336 59.7784 165.256 60.9304C164.176 62.0584 163.636 63.5824 163.636 65.5024C163.636 67.4224 164.176 68.9584 165.256 70.1104C166.336 71.2384 167.764 71.8024 169.54 71.8024C171.652 71.8024 173.488 70.8184 175.048 68.8504L180.412 73.6384C179.164 75.2704 177.58 76.5184 175.66 77.3824C173.74 78.2464 171.556 78.6784 169.108 78.6784ZM196.725 69.7504L194.817 71.8744V78.1024H186.465V52.9024H194.817V62.0464L203.097 52.9024H212.349L202.269 63.9904L212.853 78.1024H203.025L196.725 69.7504ZM38.9044 106.818H46.2844V117.474C44.7964 118.506 43.0684 119.298 41.1004 119.85C39.1324 120.402 37.2004 120.678 35.3044 120.678C32.6164 120.678 30.2044 120.126 28.0684 119.022C25.9324 117.894 24.2524 116.334 23.0284 114.342C21.8284 112.326 21.2284 110.046 21.2284 107.502C21.2284 104.958 21.8284 102.69 23.0284 100.698C24.2524 98.6824 25.9444 97.1224 28.1044 96.0184C30.2884 94.8904 32.7484 94.3264 35.4844 94.3264C37.9564 94.3264 40.1644 94.7464 42.1084 95.5864C44.0764 96.4024 45.7085 97.6024 47.0045 99.1864L41.5684 103.974C39.9844 102.126 38.1004 101.202 35.9164 101.202C34.0444 101.202 32.5564 101.766 31.4524 102.894C30.3484 104.022 29.7964 105.558 29.7964 107.502C29.7964 109.398 30.3364 110.922 31.4164 112.074C32.5204 113.226 33.9844 113.802 35.8084 113.802C36.8884 113.802 37.9204 113.598 38.9044 113.19V106.818ZM70.6764 115.71H61.1004L59.4084 120.102H50.7684L61.7844 94.9024H70.1364L81.1524 120.102H72.3684L70.6764 115.71ZM68.3364 109.59L65.8884 103.254L63.4404 109.59H68.3364ZM86.1083 94.9024H94.6043V113.514H105.98V120.102H86.1083V94.9024ZM111.927 94.9024H120.423V120.102H111.927V94.9024ZM141.145 120.678C138.481 120.678 136.081 120.126 133.945 119.022C131.809 117.894 130.129 116.334 128.905 114.342C127.705 112.326 127.105 110.046 127.105 107.502C127.105 104.958 127.705 102.69 128.905 100.698C130.129 98.6824 131.809 97.1224 133.945 96.0184C136.081 94.8904 138.481 94.3264 141.145 94.3264C143.593 94.3264 145.777 94.7584 147.697 95.6224C149.617 96.4864 151.201 97.7344 152.449 99.3664L147.085 104.154C145.525 102.186 143.689 101.202 141.577 101.202C139.801 101.202 138.373 101.778 137.293 102.93C136.213 104.058 135.673 105.582 135.673 107.502C135.673 109.422 136.213 110.958 137.293 112.11C138.373 113.238 139.801 113.802 141.577 113.802C143.689 113.802 145.525 112.818 147.085 110.85L152.449 115.638C151.201 117.27 149.617 118.518 147.697 119.382C145.777 120.246 143.593 120.678 141.145 120.678ZM158.502 94.9024H166.998V120.102H158.502V94.9024ZM191.86 115.71H182.284L180.592 120.102H171.952L182.968 94.9024H191.32L202.336 120.102H193.552L191.86 115.71ZM189.52 109.59L187.072 103.254L184.624 109.59H189.52Z" fill="#333333"/>
</mask>
<g mask="url(#mask0)">
<rect x="41.0127" y="-35.8406" width="125.773" height="81.5156" transform="rotate(28.3419 41.0127 -35.8406)" fill="#FD8A5B"/>
<rect x="113.011" y="95.6119" width="67.7765" height="105.597" transform="rotate(28.3419 113.011 95.6119)" fill="#FD8A5B"/>
<rect x="235.716" y="11.014" width="90.8833" height="133.034" transform="rotate(28.3419 235.716 11.014)" fill="#FD8A5B"/>
<g clip-path="url(#clip1)">
<rect width="122.452" height="84.3061" transform="translate(5.38953 37.3164) rotate(28.3384)" fill="#FD615B"/>
</g>
<g clip-path="url(#clip2)">
<rect width="67.8318" height="132.591" transform="translate(175.677 -20.7132) rotate(28.3384)" fill="#FD615B"/>
</g>
</g>
</g>
<defs>
<clipPath id="clip0">
<rect width="220.861" height="137.886" fill="white" transform="translate(29.6875) rotate(12.4334)"/>
</clipPath>
<clipPath id="clip1">
<rect width="122.452" height="84.3061" fill="white" transform="translate(5.38953 37.3164) rotate(28.3384)"/>
</clipPath>
<clipPath id="clip2">
<rect width="67.8318" height="132.591" fill="white" transform="translate(175.677 -20.7132) rotate(28.3384)"/>
</clipPath>
</defs>
</svg>
